<svg width="419" height="455" viewBox="0 0 419 455" fill="none" xmlns="http://www.w3.org/2000/svg">
<path d="M213.285 29H212.677C139.114 29 79.268 88.826 79.268 162.361C79.268 210.563 101.22 274.178 144.514 351.442C176.612 408.723 209.16 452.594 209.486 453.03C210.392 454.247 211.82 454.964 213.333 454.964C213.376 454.964 213.42 454.964 213.463 454.962C215.024 454.919 216.465 454.12 217.331 452.819C217.652 452.333 249.968 403.532 281.848 343.843C324.878 263.28 346.696 202.219 346.696 162.361C346.693 88.825 286.846 29 213.285 29ZM274.865 165.62C274.865 199.744 247.104 227.504 212.98 227.504C178.857 227.504 151.096 199.743 151.096 165.62C151.096 131.497 178.857 103.736 212.98 103.736C247.104 103.736 274.865 131.497 274.865 165.62Z" fill="#4AA0C1"/>
</svg>
