<svg width="277" height="276" viewBox="0 0 277 276" fill="none" xmlns="http://www.w3.org/2000/svg">
<path d="M222.999 110.001C222.999 156.117 264.891 218.501 218.499 218.501C172.107 218.501 67.9994 176.617 67.9994 130.501C67.9994 84.3853 158.607 39.0011 204.999 39.0011C251.391 39.0011 222.999 63.8853 222.999 110.001Z" fill="transparent"></path>
<path d="M187.26 183.105C171.467 182.558 204.205 215.978 126.252 231.501C48.299 247.024 99.5041 149.058 60.7518 95.7796C21.9995 42.5011 180 105 238.748 112.572C297.496 120.144 203.053 183.652 187.26 183.105Z" fill="transparent"></path>
<path d="M223.069 143.256C208.138 161.512 244.499 275 193.999 215.5C143.499 156 94.4876 201.359 67.9935 163.179C41.4994 125 171.285 73.641 205.333 72.1897C251.725 72.3623 237.999 125 223.069 143.256Z" fill="transparent"></path>


<path d="M174.806 82.1197C229.545 54.7243 272.068 142.064 255.832 154.42C239.595 166.776 127.989 244.203 92.3378 214.951C56.6863 185.7 76.47 -24.5309 108.499 51C140.529 126.531 120.067 109.515 174.806 82.1197Z" fill="#D9D9D9">
    <animate 
        attributeName="d"
        dur="10s"
        repeatCount="indefinite"
        values="
        M174.806 82.1197C229.545 54.7243 272.068 142.064 255.832 154.42C239.595 166.776 127.989 244.203 92.3378 214.951C56.6863 185.7 76.47 -24.5309 108.499 51C140.529 126.531 120.067 109.515 174.806 82.1197Z;
        M222.999 110.001C222.999 156.117 264.891 218.501 218.499 218.501C172.107 218.501 67.9994 176.617 67.9994 130.501C67.9994 84.3853 158.607 39.0011 204.999 39.0011C251.391 39.0011 222.999 63.8853 222.999 110.001Z;
        M187.26 183.105C171.467 182.558 204.205 215.978 126.252 231.501C48.299 247.024 99.5041 149.058 60.7518 95.7796C21.9995 42.5011 180 105 238.748 112.572C297.496 120.144 203.053 183.652 187.26 183.105Z;
        M223.069 143.256C208.138 161.512 244.499 275 193.999 215.5C143.499 156 94.4876 201.359 67.9935 163.179C41.4994 125 171.285 73.641 205.333 72.1897C251.725 72.3623 237.999 125 223.069 143.256Z;
        M174.806 82.1197C229.545 54.7243 272.068 142.064 255.832 154.42C239.595 166.776 127.989 244.203 92.3378 214.951C56.6863 185.7 76.47 -24.5309 108.499 51C140.529 126.531 120.067 109.515 174.806 82.1197Z;
        "
    />
</path>
</svg>
