<?xml version="1.0" standalone="no"?>
<!DOCTYPE svg PUBLIC "-//W3C//DTD SVG 20010904//EN"
 "http://www.w3.org/TR/2001/REC-SVG-20010904/DTD/svg10.dtd">
<svg version="1.0" xmlns="http://www.w3.org/2000/svg"
 width="221.000000pt" height="249.000000pt" viewBox="0 0 221.000000 249.000000"
 preserveAspectRatio="xMidYMid meet">

<g transform="translate(0.000000,249.000000) scale(0.100000,-0.100000)"
fill="#000000" stroke="none">
<path d="M750 2348 c0 -2 6 -23 14 -48 11 -37 18 -46 40 -48 25 -3 25 -2 15
25 -11 30 -47 73 -61 73 -4 0 -8 -1 -8 -2z"/>
<path d="M609 2292 c-16 -54 -9 -88 16 -84 11 2 21 5 22 6 6 5 -11 116 -18
116 -5 0 -13 -17 -20 -38z"/>
<path d="M919 2298 c5 -13 12 -35 15 -49 4 -18 14 -28 31 -31 22 -5 25 -3 19
16 -11 39 -40 81 -57 84 -14 3 -16 0 -8 -20z"/>
<path d="M492 2213 c-18 -32 -16 -93 3 -93 22 0 26 18 17 70 -7 42 -9 43 -20
23z"/>
<path d="M777 2212 c-21 -23 -22 -81 -1 -110 33 -48 91 -10 81 54 -6 38 -32
74 -52 74 -7 0 -19 -8 -28 -18z"/>
<path d="M622 2178 c-15 -15 -16 -82 -2 -108 18 -34 48 -44 76 -25 31 20 32
61 1 106 -24 36 -55 47 -75 27z"/>
<path d="M921 2164 c-23 -30 -28 -93 -9 -112 18 -18 53 -15 71 6 20 22 23 102
5 120 -19 19 -45 14 -67 -14z"/>
<path d="M502 2098 c-31 -31 8 -128 51 -128 54 0 64 60 18 109 -31 33 -50 38
-69 19z"/>
<path d="M386 2084 c-11 -29 -6 -65 9 -71 24 -8 28 1 20 46 -7 43 -18 52 -29
25z"/>
<path d="M1407 2069 c-17 -10 -47 -59 -47 -77 0 -5 9 -12 20 -15 15 -4 22 1
26 21 4 15 13 39 21 55 14 29 9 33 -20 16z"/>
<path d="M1226 2019 c-14 -17 -26 -34 -26 -39 0 -5 -3 -15 -6 -24 -5 -12 0
-16 20 -16 15 0 28 6 30 13 16 60 22 97 15 97 -4 0 -19 -14 -33 -31z"/>
<path d="M1538 1998 c-4 -41 -2 -55 11 -64 21 -16 31 -8 31 25 0 33 -19 91
-30 91 -4 0 -10 -24 -12 -52z"/>
<path d="M810 2033 c-46 -8 -165 -71 -213 -114 -76 -66 -121 -177 -84 -207 28
-24 91 -24 152 -2 104 38 167 52 203 45 52 -10 90 3 107 35 56 107 -50 262
-165 243z"/>
<path d="M412 1988 c-29 -29 6 -118 46 -118 54 1 61 59 13 102 -35 31 -42 33
-59 16z"/>
<path d="M1334 1915 c-26 -63 -12 -105 36 -105 34 0 50 23 50 70 0 45 -16 70
-46 70 -19 0 -28 -8 -40 -35z"/>
<path d="M1666 1905 c-6 -46 1 -64 27 -65 12 0 8 75 -6 95 -13 16 -15 13 -21
-30z"/>
<path d="M1196 1904 c-24 -23 -21 -99 4 -124 24 -24 43 -25 65 -3 24 24 15
101 -15 125 -27 22 -34 22 -54 2z"/>
<path d="M1492 1888 c-30 -33 -37 -73 -18 -103 9 -14 25 -25 36 -25 28 0 60
47 60 89 0 61 -38 80 -78 39z"/>
<path d="M1606 1799 c-14 -17 -26 -41 -26 -54 0 -26 24 -55 45 -55 22 0 65 59
65 89 0 57 -44 68 -84 20z"/>
<path d="M1766 1788 c-5 -29 -3 -44 6 -49 18 -12 31 16 23 51 -10 45 -22 44
-29 -2z"/>
<path d="M1294 1751 c-31 -13 -80 -75 -94 -116 -15 -46 -8 -110 16 -136 14
-15 31 -19 93 -19 58 0 96 -7 161 -30 181 -63 249 -23 184 109 -57 114 -273
229 -360 192z"/>
<path d="M1705 1696 c-44 -44 -26 -117 25 -101 26 8 52 59 48 93 -4 37 -40 41
-73 8z"/>
<path d="M610 1308 c0 -2 6 -23 14 -48 11 -37 18 -46 40 -48 25 -3 25 -2 15
25 -11 30 -47 73 -61 73 -4 0 -8 -1 -8 -2z"/>
<path d="M470 1254 c-6 -14 -10 -41 -10 -60 0 -32 2 -35 23 -28 12 3 23 7 23
8 1 0 -1 25 -3 54 -6 57 -18 66 -33 26z"/>
<path d="M785 1233 c10 -38 17 -48 39 -54 24 -7 26 -5 20 14 -11 36 -45 87
-58 87 -10 0 -10 -9 -1 -47z"/>
<path d="M636 1168 c-34 -48 -9 -128 39 -128 46 0 59 62 25 118 -23 38 -43 41
-64 10z"/>
<path d="M344 1156 c-3 -13 -4 -38 -2 -55 3 -29 5 -31 21 -19 15 11 17 21 11
56 -7 46 -20 55 -30 18z"/>
<path d="M488 1139 c-26 -15 -24 -89 3 -123 24 -31 39 -32 69 -8 19 16 22 24
16 56 -7 35 -44 86 -63 86 -4 0 -16 -5 -25 -11z"/>
<path d="M781 1124 c-23 -30 -28 -93 -9 -112 19 -19 66 -15 78 7 14 27 13 104
-2 119 -19 19 -45 14 -67 -14z"/>
<path d="M364 1056 c-21 -16 -14 -78 12 -107 19 -22 54 -25 72 -7 42 42 -36
148 -84 114z"/>
<path d="M244 1026 c-7 -40 5 -69 24 -57 9 5 11 20 6 49 -8 51 -21 54 -30 8z"/>
<path d="M1267 1029 c-19 -11 -47 -60 -47 -84 0 -18 39 -21 44 -2 2 6 9 29 16
50 14 44 12 49 -13 36z"/>
<path d="M1086 979 c-14 -17 -26 -34 -26 -39 0 -5 -3 -16 -6 -25 -6 -13 -1
-16 21 -13 24 3 30 10 41 53 7 28 13 51 14 53 2 12 -23 -4 -44 -29z"/>
<path d="M1397 958 c-4 -41 -2 -56 10 -65 9 -7 20 -10 26 -6 14 8 2 92 -16
110 -13 13 -15 8 -20 -39z"/>
<path d="M607 969 c-111 -45 -191 -113 -228 -194 -54 -117 20 -156 181 -94 68
25 99 32 155 31 89 -1 102 3 120 38 22 42 18 89 -11 148 -44 89 -116 113 -217
71z"/>
<path d="M267 943 c-14 -13 -6 -61 14 -87 15 -20 29 -26 48 -24 35 4 41 52 11
91 -20 25 -58 36 -73 20z"/>
<path d="M1194 875 c-7 -19 -14 -44 -14 -55 0 -21 33 -60 50 -60 24 0 50 41
50 79 0 73 -60 98 -86 36z"/>
<path d="M1526 865 c-7 -46 0 -64 27 -65 12 0 8 75 -7 95 -12 17 -14 14 -20
-30z"/>
<path d="M1061 871 c-20 -13 -29 -64 -17 -100 15 -45 37 -58 70 -43 21 9 26
18 26 49 0 64 -43 116 -79 94z"/>
<path d="M1352 847 c-31 -33 -39 -83 -17 -107 10 -11 26 -20 36 -20 27 0 59
48 59 89 0 62 -38 80 -78 38z"/>
<path d="M1466 759 c-35 -41 -35 -85 0 -101 24 -11 29 -9 55 20 43 48 36 112
-12 112 -10 0 -29 -14 -43 -31z"/>
<path d="M1626 748 c-7 -45 5 -71 25 -51 12 12 4 78 -10 87 -5 3 -11 -13 -15
-36z"/>
<path d="M1145 702 c-59 -37 -95 -101 -95 -166 0 -79 37 -107 126 -99 39 4 71
-2 140 -25 49 -17 98 -31 109 -32 117 -11 142 32 83 142 -67 125 -282 232
-363 180z"/>
<path d="M1573 665 c-11 -8 -26 -28 -31 -45 -9 -24 -7 -33 8 -52 18 -22 20
-22 47 -8 32 18 49 56 39 94 -7 30 -30 34 -63 11z"/>
</g>
</svg>
