<?xml version="1.0" standalone="no"?>
<!DOCTYPE svg PUBLIC "-//W3C//DTD SVG 20010904//EN"
 "http://www.w3.org/TR/2001/REC-SVG-20010904/DTD/svg10.dtd">
<svg version="1.0" xmlns="http://www.w3.org/2000/svg"
 width="221.000000pt" height="249.000000pt" viewBox="0 0 221.000000 249.000000"
 preserveAspectRatio="xMidYMid meet">

<g transform="translate(0.000000,249.000000) scale(0.100000,-0.100000)"
fill="#000000" stroke="none">
<path d="M567 2344 c-10 -10 -9 -52 2 -59 5 -3 12 -1 15 3 7 12 -8 65 -17 56z"/>
<path d="M780 2341 c0 -6 5 -13 10 -16 6 -3 10 1 10 9 0 9 -4 16 -10 16 -5 0
-10 -4 -10 -9z"/>
<path d="M773 2278 c-26 -33 -44 -104 -38 -144 11 -79 59 -93 110 -33 40 48
33 111 -18 167 -23 25 -40 28 -54 10z"/>
<path d="M564 2235 c-24 -37 -29 -97 -10 -133 27 -52 99 -79 126 -47 16 19 15
76 -1 108 -13 26 -80 97 -91 97 -4 0 -15 -11 -24 -25z"/>
<path d="M950 2161 c0 -17 5 -31 10 -31 6 0 10 11 10 24 0 14 -4 28 -10 31 -6
4 -10 -7 -10 -24z"/>
<path d="M462 2086 c2 -16 9 -31 17 -34 10 -3 11 2 6 19 -12 39 -27 48 -23 15z"/>
<path d="M902 2088 c-72 -78 -37 -196 46 -156 56 27 64 101 17 152 -29 32 -36
32 -63 4z"/>
<path d="M1377 2093 c-11 -10 -8 -43 3 -43 6 0 10 11 10 25 0 26 -2 29 -13 18z"/>
<path d="M1588 2050 c-6 -40 -3 -49 13 -33 8 8 8 20 2 40 l-10 28 -5 -35z"/>
<path d="M500 2025 c-21 -25 -24 -92 -6 -120 34 -52 103 -57 125 -9 15 35 -11
90 -58 121 -40 27 -45 28 -61 8z"/>
<path d="M1344 2005 c-28 -19 -54 -75 -54 -115 0 -23 10 -42 34 -66 39 -39 46
-41 77 -15 32 26 32 108 1 169 -25 47 -28 48 -58 27z"/>
<path d="M1547 1970 c-64 -50 -98 -136 -71 -177 17 -27 43 -29 85 -7 58 29 74
125 31 182 l-18 23 -27 -21z"/>
<path d="M707 1913 c-13 -27 -32 -62 -41 -80 -14 -26 -15 -37 -6 -54 11 -19
17 -21 58 -14 26 3 69 8 97 11 55 4 79 25 69 58 -9 28 -114 125 -136 126 -11
0 -26 -18 -41 -47z"/>
<path d="M1196 1901 c-5 -13 -4 -27 3 -34 17 -17 24 -1 14 30 l-10 28 -7 -24z"/>
<path d="M1202 1818 c-60 -65 -46 -144 30 -163 52 -13 87 59 57 118 -13 26
-50 67 -59 67 -4 0 -16 -10 -28 -22z"/>
<path d="M1682 1809 c-7 -11 -11 -24 -8 -27 10 -9 28 15 24 32 -2 14 -5 13
-16 -5z"/>
<path d="M1604 1751 c-44 -27 -64 -59 -64 -103 0 -63 61 -79 111 -29 32 32 38
77 16 120 -16 33 -26 34 -63 12z"/>
<path d="M1343 1632 c-86 -80 -84 -115 7 -127 25 -4 57 -11 72 -17 39 -14 76
-3 84 26 6 27 -69 176 -89 176 -7 0 -40 -26 -74 -58z"/>
<path d="M616 1395 c-11 -29 -7 -55 9 -55 11 0 13 8 8 33 -7 40 -9 42 -17 22z"/>
<path d="M830 1395 c0 -9 5 -15 11 -13 6 2 11 8 11 13 0 5 -5 11 -11 13 -6 2
-11 -4 -11 -13z"/>
<path d="M803 1294 c-29 -65 -27 -124 6 -157 17 -17 23 -18 48 -8 74 30 84
129 20 199 -31 34 -46 27 -74 -34z"/>
<path d="M614 1295 c-38 -58 -25 -142 28 -179 27 -19 69 -21 86 -4 14 14 16
67 2 102 -10 28 -77 106 -91 106 -5 0 -16 -11 -25 -25z"/>
<path d="M998 1222 c-2 -18 -1 -35 4 -38 14 -9 21 25 11 49 -9 21 -10 20 -15
-11z"/>
<path d="M510 1148 c0 -15 5 -30 11 -33 19 -12 21 2 5 32 l-15 28 -1 -27z"/>
<path d="M946 1140 c-68 -81 -21 -198 60 -146 50 34 54 101 9 150 -31 33 -38
33 -69 -4z"/>
<path d="M1423 1140 c-12 -28 -6 -47 9 -32 5 5 8 20 6 33 l-5 24 -10 -25z"/>
<path d="M1637 1105 c-6 -35 -1 -43 15 -27 8 8 8 18 1 34 -10 22 -10 22 -16
-7z"/>
<path d="M556 1087 c-11 -8 -20 -31 -23 -60 -5 -41 -2 -49 25 -77 36 -35 73
-39 103 -9 34 34 5 104 -58 141 -25 15 -32 16 -47 5z"/>
<path d="M1394 1065 c-26 -18 -54 -74 -54 -110 0 -40 26 -81 60 -95 26 -11 33
-10 50 5 31 28 35 85 8 151 -26 64 -34 71 -64 49z"/>
<path d="M1567 999 c-67 -77 -66 -169 1 -169 52 0 102 57 102 115 0 40 -29 95
-50 95 -10 0 -34 -18 -53 -41z"/>
<path d="M740 935 c-37 -73 -41 -87 -29 -101 11 -13 23 -15 64 -9 27 4 67 7
87 6 47 -2 83 29 72 62 -9 28 -114 126 -135 127 -11 0 -31 -29 -59 -85z"/>
<path d="M1246 963 c-9 -28 9 -67 19 -42 3 8 2 26 -3 39 l-9 25 -7 -22z"/>
<path d="M1252 877 c-50 -53 -49 -119 2 -153 81 -53 129 64 60 146 -31 36 -34
36 -62 7z"/>
<path d="M1732 866 c-14 -30 -9 -47 9 -29 6 6 9 21 7 34 -3 23 -3 23 -16 -5z"/>
<path d="M1642 800 c-76 -55 -75 -150 2 -150 46 0 86 41 86 87 0 35 -24 93
-39 93 -4 0 -26 -13 -49 -30z"/>
<path d="M1393 692 c-46 -43 -63 -65 -63 -84 0 -30 14 -37 85 -49 28 -5 67
-11 87 -15 34 -5 39 -3 50 20 10 24 7 35 -30 104 -22 42 -47 78 -54 79 -7 1
-41 -24 -75 -55z"/>
</g>
</svg>
