<?xml version="1.0" standalone="no"?>
<!DOCTYPE svg PUBLIC "-//W3C//DTD SVG 20010904//EN"
 "http://www.w3.org/TR/2001/REC-SVG-20010904/DTD/svg10.dtd">
<svg version="1.0" xmlns="http://www.w3.org/2000/svg"
 width="221.000000pt" height="249.000000pt" viewBox="0 0 221.000000 249.000000"
 preserveAspectRatio="xMidYMid meet">

<g transform="translate(0.000000,249.000000) scale(0.100000,-0.100000)"
fill="#000000" stroke="none">
<path d="M625 2284 c-9 -14 -19 -49 -21 -77 -7 -66 19 -112 66 -122 95 -21
130 104 54 195 -33 39 -75 41 -99 4z"/>
<path d="M430 2255 c-48 -51 -33 -174 24 -204 29 -16 89 6 106 40 26 48 -14
154 -68 178 -32 15 -35 14 -62 -14z"/>
<path d="M821 2154 c-33 -42 -43 -92 -25 -129 14 -31 49 -55 79 -55 7 0 23 12
34 26 37 47 21 147 -28 174 -29 15 -37 13 -60 -16z"/>
<path d="M301 2064 c-53 -68 14 -208 84 -176 14 7 33 27 42 46 20 43 7 82 -44
126 -41 37 -56 37 -82 4z"/>
<path d="M657 2023 c-36 -25 -41 -26 -82 -15 -59 16 -89 2 -109 -50 -9 -21
-16 -43 -16 -48 0 -6 -13 -29 -30 -52 -16 -22 -30 -50 -30 -61 0 -34 47 -103
79 -117 27 -11 36 -9 73 11 51 27 128 42 223 44 96 1 92 0 115 45 35 69 21
123 -40 155 -15 8 -38 30 -50 50 -19 31 -64 65 -87 65 -5 0 -25 -12 -46 -27z"/>
<path d="M1298 2022 c-37 -22 -58 -69 -58 -129 0 -58 20 -83 67 -83 65 0 104
64 88 146 -6 34 -44 84 -62 84 -4 0 -20 -8 -35 -18z"/>
<path d="M1491 1984 c-28 -20 -60 -88 -61 -127 0 -37 49 -87 85 -87 76 0 114
145 54 208 -24 26 -46 28 -78 6z"/>
<path d="M1114 1893 c-43 -32 -59 -127 -28 -171 36 -51 129 -7 127 61 -2 55
-33 111 -63 115 -14 1 -30 -1 -36 -5z"/>
<path d="M1617 1786 c-59 -54 -67 -107 -24 -153 38 -42 86 -26 111 37 20 50
20 73 1 110 -19 37 -52 39 -88 6z"/>
<path d="M1241 1739 c-33 -39 -57 -62 -100 -98 -28 -23 -34 -34 -34 -68 0 -23
9 -56 20 -75 19 -32 21 -33 89 -34 95 -2 199 -19 226 -38 34 -24 100 -21 125
7 50 54 55 101 18 146 -14 16 -32 52 -40 79 -8 27 -24 57 -35 67 -19 17 -25
17 -71 6 -48 -13 -52 -12 -87 13 -50 34 -78 33 -111 -5z"/>
<path d="M1322 1215 c-44 -31 -69 -113 -51 -165 19 -54 78 -67 126 -26 25 22
28 31 28 84 0 94 -49 145 -103 107z"/>
<path d="M1506 1160 c-14 -17 -31 -49 -37 -71 -17 -55 -4 -89 44 -113 50 -24
80 -10 103 50 44 115 -40 216 -110 134z"/>
<path d="M1147 1089 c-61 -35 -62 -180 -1 -195 31 -8 80 20 91 53 13 37 -10
117 -39 138 -26 18 -27 18 -51 4z"/>
<path d="M1635 966 c-18 -19 -36 -47 -39 -61 -9 -35 21 -87 58 -100 25 -8 31
-6 56 22 38 42 48 95 26 139 -22 46 -57 46 -101 0z"/>
<path d="M1267 934 c-22 -27 -56 -61 -111 -110 -25 -23 -28 -30 -23 -71 2 -25
14 -57 25 -72 18 -24 26 -26 93 -27 112 -2 169 -12 226 -42 50 -26 52 -26 87
-10 36 18 76 79 76 117 0 11 -12 33 -26 50 -14 17 -32 52 -40 78 -23 76 -38
86 -111 78 -55 -6 -66 -4 -89 14 -37 29 -80 27 -107 -5z"/>
<path d="M654 925 c-19 -29 -29 -94 -20 -130 10 -41 41 -65 84 -65 62 0 91 51
71 123 -23 86 -99 127 -135 72z"/>
<path d="M461 901 c-60 -60 -24 -211 50 -211 39 0 89 48 89 85 0 60 -58 145
-100 145 -11 0 -29 -9 -39 -19z"/>
<path d="M845 796 c-16 -24 -35 -80 -35 -103 0 -6 12 -25 26 -42 19 -23 34
-31 60 -31 47 0 68 34 62 100 -8 86 -77 132 -113 76z"/>
<path d="M325 700 c-20 -38 -19 -77 3 -120 34 -69 103 -69 132 0 16 39 1 78
-47 120 -43 38 -68 38 -88 0z"/>
<path d="M678 664 c-35 -25 -40 -26 -83 -14 -60 17 -87 -1 -111 -72 -9 -29
-28 -66 -40 -81 -75 -89 40 -224 134 -159 35 24 170 46 232 37 44 -6 52 -4 74
18 30 30 47 87 37 124 -4 16 -24 39 -44 53 -20 14 -54 46 -77 73 -48 55 -69
58 -122 21z"/>
</g>
</svg>
