<?xml version="1.0" standalone="no"?>
<!DOCTYPE svg PUBLIC "-//W3C//DTD SVG 20010904//EN"
 "http://www.w3.org/TR/2001/REC-SVG-20010904/DTD/svg10.dtd">
<svg version="1.0" xmlns="http://www.w3.org/2000/svg"
 width="221.000000pt" height="249.000000pt" viewBox="0 0 221.000000 249.000000"
 preserveAspectRatio="xMidYMid meet">

<g transform="translate(0.000000,249.000000) scale(0.100000,-0.100000)"
fill="#000000" stroke="none">
<path d="M1483 2368 c-21 -28 -24 -38 -9 -38 8 0 18 9 21 21 8 25 2 34 -12 17z"/>
<path d="M1705 2327 c-4 -10 -3 -23 4 -30 16 -16 26 0 14 25 -10 21 -11 22
-18 5z"/>
<path d="M1426 2269 c-38 -45 -37 -110 3 -150 36 -35 51 -36 81 -4 17 18 25
40 28 77 3 46 1 57 -22 81 -33 35 -58 34 -90 -4z"/>
<path d="M1658 2254 c-78 -42 -76 -184 2 -184 20 0 37 10 59 35 40 46 43 104
6 140 -28 29 -31 29 -67 9z"/>
<path d="M1284 2195 c-17 -27 -16 -39 2 -27 12 8 29 52 20 52 -3 0 -13 -11
-22 -25z"/>
<path d="M1257 2125 c-50 -50 -13 -185 51 -185 27 0 62 48 62 85 0 82 -70 144
-113 100z"/>
<path d="M1840 2113 c0 -6 -3 -18 -6 -27 -4 -11 -1 -16 10 -16 9 0 16 6 16 13
0 16 -20 46 -20 30z"/>
<path d="M831 2080 c11 -30 23 -38 33 -22 6 10 -21 52 -34 52 -5 0 -4 -13 1
-30z"/>
<path d="M612 2052 c-16 -29 -12 -55 6 -43 8 5 12 21 10 37 l-3 29 -13 -23z"/>
<path d="M1749 2011 c-33 -32 -39 -45 -39 -80 0 -33 5 -44 26 -58 24 -15 29
-15 52 -2 65 36 94 132 50 163 -33 23 -46 20 -89 -23z"/>
<path d="M1471 1992 c-25 -27 -62 -59 -81 -72 -74 -49 -89 -94 -44 -129 21
-17 41 -21 95 -21 45 0 86 -7 119 -20 63 -25 102 -25 123 -2 28 31 19 79 -23
127 -10 11 -28 45 -40 75 -42 107 -78 117 -149 42z"/>
<path d="M823 2015 c-46 -32 -47 -131 -2 -176 26 -26 46 -24 80 10 23 24 29
38 29 73 0 40 -19 82 -44 100 -17 12 -40 9 -63 -7z"/>
<path d="M596 1958 c-37 -53 -5 -150 56 -166 61 -17 86 18 75 101 -10 75 -95
117 -131 65z"/>
<path d="M1028 1920 c4 -30 32 -43 32 -16 0 12 -25 46 -34 46 -1 0 -1 -13 2
-30z"/>
<path d="M997 1843 c-20 -24 -39 -96 -31 -119 23 -62 82 -74 114 -21 22 35 27
106 10 138 -14 25 -71 26 -93 2z"/>
<path d="M487 1844 c-10 -11 -9 -54 2 -54 15 0 18 13 12 38 -3 13 -9 20 -14
16z"/>
<path d="M480 1751 c-15 -29 -13 -50 11 -98 12 -26 34 -50 51 -59 29 -15 32
-15 57 4 35 25 39 72 11 117 -26 41 -48 55 -89 55 -20 0 -34 -7 -41 -19z"/>
<path d="M763 1755 c-12 -8 -29 -36 -39 -62 -9 -27 -30 -65 -46 -86 -40 -51
-52 -95 -33 -123 20 -30 56 -34 117 -11 31 11 85 20 131 22 78 3 99 12 118 47
14 26 -13 73 -59 102 -21 13 -53 41 -71 62 -34 39 -67 63 -86 64 -6 0 -20 -7
-32 -15z"/>
<path d="M1571 1341 c-8 -14 -7 -20 4 -25 8 -3 15 -1 15 3 0 5 3 16 6 25 9 23
-13 20 -25 -3z"/>
<path d="M1800 1305 c0 -16 6 -25 15 -25 16 0 19 9 9 34 -9 25 -24 19 -24 -9z"/>
<path d="M1529 1261 c-41 -41 -41 -107 -1 -152 23 -26 33 -31 55 -25 66 16 78
147 18 193 -25 19 -40 15 -72 -16z"/>
<path d="M1757 1243 c-55 -28 -77 -133 -37 -173 24 -24 32 -25 70 -5 54 28 78
115 45 162 -19 28 -46 33 -78 16z"/>
<path d="M1387 1190 c-19 -28 -21 -40 -7 -40 12 0 32 38 28 52 -3 7 -12 1 -21
-12z"/>
<path d="M1357 1115 c-52 -51 -12 -185 53 -185 27 0 60 43 60 78 0 87 -69 152
-113 107z"/>
<path d="M1940 1103 c0 -6 -3 -18 -6 -27 -4 -11 -1 -16 10 -16 9 0 16 6 16 13
0 16 -20 46 -20 30z"/>
<path d="M933 1070 c11 -30 21 -37 31 -22 5 8 -28 52 -39 52 -2 0 2 -13 8 -30z"/>
<path d="M712 1042 c-16 -29 -12 -55 6 -43 8 5 12 21 10 37 l-3 29 -13 -23z"/>
<path d="M1880 1027 c-59 -30 -90 -126 -52 -160 37 -34 82 -16 112 43 27 53
26 95 -2 114 -27 19 -26 19 -58 3z"/>
<path d="M1561 973 c-31 -32 -69 -66 -84 -76 -62 -41 -72 -102 -22 -125 14 -7
55 -12 90 -12 41 0 83 -7 115 -20 63 -25 102 -25 123 -2 29 32 20 76 -29 134
-12 15 -30 50 -39 78 -17 51 -45 80 -78 80 -10 0 -44 -26 -76 -57z"/>
<path d="M934 1008 c-43 -20 -58 -102 -29 -158 26 -49 74 -49 109 2 31 44 11
134 -33 158 -23 12 -20 12 -47 -2z"/>
<path d="M696 948 c-36 -51 -9 -139 50 -164 37 -16 67 -8 78 22 19 49 -5 133
-43 154 -32 17 -69 12 -85 -12z"/>
<path d="M1132 910 c1 -13 9 -25 16 -28 17 -5 15 23 -4 39 -14 11 -15 10 -12
-11z"/>
<path d="M1100 830 c-11 -11 -22 -32 -26 -47 -3 -16 -7 -33 -9 -40 -8 -24 16
-70 42 -82 51 -23 93 28 93 113 0 69 -56 100 -100 56z"/>
<path d="M587 833 c-11 -10 -8 -53 3 -53 6 0 10 14 10 30 0 31 -2 35 -13 23z"/>
<path d="M587 742 c-22 -24 -21 -47 4 -99 27 -55 71 -81 106 -62 46 25 43 86
-8 144 -35 40 -76 46 -102 17z"/>
<path d="M869 746 c-14 -7 -32 -33 -46 -70 -12 -33 -32 -69 -44 -82 -29 -31
-50 -94 -37 -117 17 -33 54 -39 118 -17 33 11 86 20 118 20 69 0 119 15 132
40 17 31 -8 79 -57 110 -24 15 -61 48 -83 73 -44 50 -68 60 -101 43z"/>
</g>
</svg>
