<svg width="80" height="80" viewBox="0 0 80 80" fill="none" xmlns="http://www.w3.org/2000/svg">
<path d="M74 68.6667C74 68.6667 74 65.908 74 62.5084V37.8711C74 34.4714 74 31.7112 74 31.7112L64.3181 31.712C63.748 31.7116 63.5971 31.7116 62.7048 31.7116C61.8124 31.7116 61.6961 31.7112 61.091 31.7112H15.909C15.4723 31.7112 15.1861 31.7112 14.2954 31.7112C13.4048 31.7112 13.5426 31.7112 12.6819 31.7112L3.00001 31.712C2.99999 31.2493 3 34.4707 3 37.8704V62.5084C3 65.908 3.00001 68.6667 3.00001 68.6667L14.2954 68.6675H62.7048L74 68.6667ZM6.22716 65.1667V35.4069H35.66H70.5V49.6668V65.1667H37.5H6.22716Z" fill="#242B33"/>
<path d="M4.39999 32.2L9.45806 18L76 18.5L72.5 33" stroke="#242B33" stroke-width="3"/>
<path d="M14.8833 41.1822C15.1099 41.1688 15.355 41.0513 15.5556 40.8782C15.7087 40.7461 15.8349 40.5827 15.9074 40.4074C16.0747 40.0032 15.8862 39.6956 15.4881 39.7196C15.3575 39.7271 14.1831 39.8231 13.068 40.7854C11.9529 41.7478 11.6862 42.8955 11.6597 43.0237C11.578 43.4115 11.8515 43.639 12.2724 43.5371C12.6947 43.4354 13.1042 43.0357 13.1939 42.6462C13.1948 42.6402 13.3356 42.0477 13.8065 41.6413C14.2776 41.2346 14.8833 41.1822 14.8833 41.1822Z" fill="white"/>
<path d="M17.7989 48.8983C20.7507 47.6533 22.1546 44.2535 20.9291 41.3202C20.3154 39.8514 19.1546 38.7322 17.6604 38.1687C17.4125 38.0751 17.132 38.2012 17.0358 38.4494C16.9399 38.6984 17.0639 38.9762 17.3124 39.0701C18.5576 39.5399 19.5253 40.472 20.0369 41.6965C21.0584 44.1412 19.8882 46.9741 17.4284 48.0115C14.9687 49.0489 12.1365 47.9041 11.1151 45.4594C10.0935 43.0143 11.2639 40.1818 13.7236 39.1444C13.9703 39.0404 14.0867 38.7577 13.9844 38.5129C13.882 38.2678 13.5998 38.1537 13.3531 38.2577C10.4013 39.5027 8.99716 42.9021 10.2229 45.8358C11.4484 48.769 14.8471 50.1432 17.7989 48.8983Z" fill="#242B33"/>
<path d="M76.5 17V19V54L72.5 68" stroke="#242B33" stroke-width="3"/>
<path d="M13.5319 38.1859C10.5402 39.3307 9.0236 42.6813 10.1506 45.6542C10.7149 47.1429 11.8377 48.3006 13.3122 48.9141C13.5569 49.016 13.8415 48.8994 13.9459 48.6546C14.05 48.409 13.9354 48.1271 13.6901 48.0249C12.4613 47.5134 11.5253 46.5493 11.0548 45.3082C10.1155 42.8305 11.3796 40.0386 13.8726 39.0846C16.3655 38.1306 19.1579 39.3703 20.0972 41.848C21.0366 44.3261 19.7724 47.1176 17.2794 48.0715C17.0294 48.1672 16.9036 48.4459 16.9976 48.6939C17.0918 48.9424 17.37 49.0659 17.6201 48.9702C20.6118 47.8254 22.1286 44.4752 21.0014 41.5019C19.8745 38.529 16.5236 37.0411 13.5319 38.1859Z" fill="#242B33"/>
</svg>
