<svg width="80" height="80" viewBox="0 0 80 80" fill="none" xmlns="http://www.w3.org/2000/svg">
<path d="M74.9297 31.2334C74.8302 14.1963 54.007 14.1291 53.7967 14.1304C49.8896 14.1547 46.6576 20.1067 45.9512 27.9661L37.7385 21.0239C36.8455 21.0294 36.0895 29.5715 36.1006 31.4739C36.1117 33.3763 36.8455 43.0055 37.7385 43L45.9914 34.8592C46.7895 42.7093 50.0907 48.6208 53.9979 48.5965C54.2081 48.5956 75.0291 48.2702 74.9297 31.2334ZM49.0437 31.394C49.0104 25.6933 51.161 21.0405 53.837 21.0239C61.8972 20.9739 71.6606 25.5253 71.694 31.2535C71.7275 36.9817 62.0179 41.6539 53.9576 41.7039C51.2817 41.7205 49.0769 37.0947 49.0437 31.394Z" fill="#242B33"/>
<path d="M49.1337 57.2334C49.0312 40.1963 27.5639 40.1291 27.3471 40.1304C23.3191 40.1547 19.9872 46.1067 19.2589 53.9661L10.7923 47.0239C9.87164 47.0294 9.09221 55.5715 9.10365 57.4739C9.1151 59.3763 9.87164 69.0055 10.7923 69L19.3004 60.8592C20.1232 68.7093 23.5265 74.6208 27.5545 74.5965C27.7713 74.5956 49.2362 74.2702 49.1337 57.2334ZM22.4471 57.394C22.4128 51.6933 24.6299 47.0405 27.3886 47.0239C35.6982 46.9739 45.7635 51.5253 45.798 57.2535C45.8324 62.9817 35.8226 67.6539 27.513 67.7039C24.7543 67.7205 22.4814 63.0947 22.4471 57.394Z" fill="#242B33"/>
<path d="M36.7552 54.6982C36.3052 55.176 36.0301 55.8302 36.0301 56.4843C36.0301 57.1384 36.3052 57.7923 36.7552 58.2704C37.23 58.7232 37.8801 59 38.5301 59C39.1802 59 39.8299 58.7232 40.3051 58.2704C40.7551 57.7926 41.0301 57.1384 41.0301 56.4843C41.0301 55.8302 40.7551 55.1763 40.3051 54.6982C39.3551 53.7673 37.7052 53.7673 36.7552 54.6982Z" fill="#242B33"/>
<path d="M62.7553 28.6982C62.3053 29.176 62.0302 29.8302 62.0302 30.4843C62.0302 31.1384 62.3053 31.7923 62.7553 32.2704C63.2301 32.7232 63.8802 33 64.5302 33C65.1803 33 65.83 32.7232 66.3052 32.2704C66.7551 31.7926 67.0302 31.1384 67.0302 30.4843C67.0302 29.8302 66.7551 29.1763 66.3052 28.6982C65.3551 27.7673 63.7053 27.7673 62.7553 28.6982Z" fill="#242B33"/>
</svg>
