<svg width="80" height="80" viewBox="0 0 80 80" fill="none" xmlns="http://www.w3.org/2000/svg">
<g clip-path="url(#clip0_13_93)">
<path d="M53.3893 4.62187C53.5719 4.62187 53.756 4.58452 53.9333 4.50452C54.3146 4.3339 54.7013 4.17249 55.0933 4.02453C55.7827 3.76187 56.1293 2.9925 55.8666 2.30453C55.6052 1.61516 54.8346 1.27391 54.1479 1.52984C53.7065 1.69781 53.2705 1.87922 52.8426 2.07125C52.1705 2.37265 51.8693 3.16187 52.1719 3.8339C52.3933 4.32843 52.8786 4.62187 53.3893 4.62187Z" fill="#242B33"/>
<path d="M46.6666 33.8672C47.404 33.8672 47.9999 33.2698 47.9999 32.5339V31.1792C47.9999 30.4433 47.404 29.8459 46.6666 29.8459C45.9293 29.8459 45.3333 30.4433 45.3333 31.1792V32.5339C45.3333 33.2698 45.9293 33.8672 46.6666 33.8672Z" fill="#242B33"/>
<path d="M54.3227 12.7778C53.8933 13.0137 53.4733 13.2684 53.0694 13.5392C52.4574 13.9486 52.2921 14.7778 52.7015 15.3898C52.9588 15.7739 53.3815 15.9804 53.8108 15.9804C54.0668 15.9804 54.3241 15.9084 54.5508 15.7551C54.8935 15.5272 55.2468 15.3125 55.6094 15.1125C56.2535 14.7578 56.4894 13.9458 56.1347 13.3019C55.7786 12.6565 54.9693 12.4245 54.3227 12.7778Z" fill="#242B33"/>
<path d="M35.4107 12.6419C35.6627 13.0446 36.096 13.266 36.5401 13.266C36.7827 13.266 37.0281 13.2006 37.2468 13.0619C37.8709 12.6699 38.0601 11.8472 37.6682 11.2246C37.4162 10.8232 37.1549 10.4313 36.8802 10.0472C36.4523 9.44862 35.6216 9.30862 35.0202 9.73925C34.4202 10.1686 34.2829 11.0007 34.7109 11.5992C34.9546 11.9392 35.1881 12.2872 35.4107 12.6419Z" fill="#242B33"/>
<path d="M59.788 2.82191C59.8427 2.82191 59.9 2.81785 59.956 2.81129C60.368 2.75926 60.7854 2.71926 61.2066 2.68988C61.9425 2.64051 62.4972 2.00582 62.4493 1.27129C62.4013 0.536605 61.756 -0.0193316 61.0307 0.0298871C60.556 0.060512 60.0866 0.107231 59.6227 0.165824C58.8921 0.257855 58.3733 0.924417 58.4668 1.6552C58.5507 2.32848 59.1254 2.82191 59.788 2.82191Z" fill="#242B33"/>
<path d="M42.3557 36.4047C41.8557 36.9447 41.8864 37.7887 42.4251 38.2887C42.6839 38.5273 43.0078 38.6447 43.3331 38.6447C43.6917 38.6447 44.0478 38.502 44.3117 38.2179C44.589 37.9194 44.8943 37.6365 45.2196 37.378C45.797 36.9194 45.8929 36.0806 45.4343 35.5047C44.977 34.9287 44.137 34.83 43.5611 35.29C43.1304 35.6312 42.7251 36.0073 42.3557 36.4047Z" fill="#242B33"/>
<path d="M42.7519 13.0619C42.9719 13.2005 43.2173 13.266 43.4599 13.266C43.904 13.266 44.3373 13.0446 44.5893 12.6419C44.8119 12.2872 45.0452 11.9392 45.2893 11.5992C45.7172 11.0007 45.5799 10.1686 44.9799 9.73925C44.3785 9.30862 43.5479 9.44862 43.1199 10.0472C42.8452 10.4313 42.5826 10.8232 42.3319 11.2246C41.9401 11.8472 42.1293 12.6699 42.7519 13.0619Z" fill="#242B33"/>
<path d="M46.6387 27.0911C46.7001 27.1005 46.7601 27.1044 46.8201 27.1044C47.476 27.1044 48.0494 26.6191 48.1413 25.9497C48.196 25.5391 48.2693 25.1338 48.3599 24.7338C48.524 24.0152 48.0732 23.3018 47.3546 23.1391C46.636 22.9765 45.9213 23.4258 45.7587 24.1444C45.6519 24.6204 45.564 25.103 45.4973 25.5911C45.3987 26.3205 45.9107 26.9925 46.6387 27.0911Z" fill="#242B33"/>
<path d="M37.5613 17.1793C37.6946 17.5739 37.8146 17.9725 37.9254 18.3779C38.0868 18.9711 38.6254 19.3619 39.2107 19.3619C39.3266 19.3619 39.444 19.346 39.5613 19.3139C39.7266 19.2699 39.8707 19.1899 39.9999 19.0954C40.1293 19.19 40.2732 19.27 40.4385 19.3139C40.5559 19.346 40.6732 19.3619 40.7891 19.3619C41.3745 19.3619 41.9132 18.9713 42.0745 18.3779C42.1851 17.9725 42.3038 17.5738 42.4385 17.1793C42.6771 16.4819 42.3026 15.7246 41.6065 15.4872C40.9665 15.2686 40.2918 15.5819 39.9998 16.174C39.7077 15.5819 39.033 15.2686 38.393 15.4872C37.696 15.7246 37.3227 16.4819 37.5613 17.1793Z" fill="#242B33"/>
<path d="M47.7854 8.20848C48.096 8.20848 48.408 8.10051 48.6601 7.88176C48.976 7.60707 49.3001 7.34035 49.6307 7.08582C50.2147 6.63645 50.3227 5.80051 49.8747 5.21645C49.4254 4.63239 48.588 4.52176 48.0054 4.97239C47.6307 5.26036 47.2654 5.55911 46.9107 5.86973C46.3547 6.35239 46.296 7.19504 46.7801 7.75113C47.0427 8.05395 47.4133 8.20848 47.7854 8.20848Z" fill="#242B33"/>
<path d="M48.8213 17.5419C48.528 17.9313 48.2507 18.334 47.9907 18.7472C47.5974 19.3699 47.7854 20.1939 48.408 20.5872C48.6294 20.7246 48.8733 20.7913 49.1174 20.7913C49.5601 20.7913 49.9933 20.5713 50.2468 20.1686C50.4682 19.818 50.7027 19.4766 50.9521 19.1472C51.3948 18.5593 51.2774 17.7232 50.6894 17.2793C50.1001 16.8352 49.264 16.9566 48.8213 17.5419Z" fill="#242B33"/>
<path d="M61.3027 10.6939C60.8094 10.7313 60.3241 10.7899 59.8453 10.8686C59.1186 10.9886 58.6268 11.6753 58.7468 12.4019C58.8535 13.0552 59.4174 13.5178 60.06 13.5178C60.1321 13.5178 60.2041 13.5125 60.2774 13.5005C60.6841 13.4337 61.0933 13.3845 61.508 13.3525C62.2427 13.2952 62.7921 12.6539 62.7347 11.9192C62.6772 11.1858 62.0519 10.6313 61.3027 10.6939Z" fill="#242B33"/>
<path d="M66.236 2.92045C66.6506 2.98717 67.0639 3.06576 67.4719 3.15514C67.5692 3.17654 67.6639 3.18576 67.7586 3.18576C68.3719 3.18576 68.9227 2.7617 69.06 2.13904C69.2174 1.41905 68.7627 0.708422 68.0427 0.551079C67.5841 0.449829 67.1227 0.36311 66.6547 0.288423C65.928 0.168423 65.2453 0.668422 65.1294 1.39514C65.0133 2.12186 65.508 2.80576 66.236 2.92045Z" fill="#242B33"/>
<path d="M68.5172 11.6525C68.0572 11.4885 67.5892 11.3419 67.1158 11.2166C66.4078 11.0325 65.6758 11.4525 65.4852 12.1645C65.2972 12.8766 65.7211 13.6058 66.4331 13.7952C66.8346 13.9005 67.2291 14.0231 67.6158 14.1631C67.7652 14.2164 67.9158 14.2417 68.0664 14.2417C68.6131 14.2417 69.1264 13.9017 69.3211 13.3577C69.5706 12.6645 69.2092 11.9005 68.5172 11.6525Z" fill="#242B33"/>
<path d="M77.6813 8.87245C77.9439 9.16042 78.3053 9.30714 78.6666 9.30714C78.988 9.30714 79.3092 9.19245 79.5652 8.95917C80.1092 8.46323 80.1478 7.61917 79.6519 7.07511C79.4919 6.90042 79.3292 6.72839 79.1652 6.56042C78.6478 6.03371 77.8052 6.02714 77.2798 6.54167C76.7519 7.05636 76.7452 7.90026 77.2584 8.42698C77.4027 8.57245 77.5439 8.72182 77.6813 8.87245Z" fill="#242B33"/>
<path d="M57.1155 72.6404H41.1156C40.3782 72.6404 42.1753 72.6404 41.1156 72.6404C40.0558 72.6404 40.3782 75.307 41.1156 75.307H57.1155C60.8541 75.307 63.7822 72.379 63.7822 68.6402V65.9735C63.7822 65.2376 63.1863 64.6403 62.449 64.6403H17.1156C16.3783 64.6403 15.7823 65.2376 15.7823 65.9735V68.6402C15.7823 72.3788 18.7103 75.307 22.449 75.307H34.449H43.7822C43.7822 76.0429 40.3782 72.6404 41.1156 72.6404C41.8529 72.6404 39.7823 72.6404 35.7823 72.6404L37.1156 73.9737C37.1156 73.2377 36.5196 72.6404 35.7823 72.6404H22.449C20.205 72.6404 18.4491 70.8831 18.4491 68.6404V67.3071H61.1157V68.6404C61.1155 70.8831 59.3594 72.6404 57.1155 72.6404Z" fill="#242B33"/>
<path d="M41.3334 30.5657C41.3334 29.8298 40.7374 29.2324 40.0001 29.2324C39.2627 29.2324 38.6668 29.8298 38.6668 30.5657V32.0484C38.6668 32.7843 39.2627 33.3816 40.0001 33.3816C40.7374 33.3816 41.3334 32.7843 41.3334 32.0484V30.5657Z" fill="#242B33"/>
<path d="M40.0001 36.6404C39.2627 36.6404 38.6668 37.2377 38.6668 37.9737V38.6404C38.6668 39.3763 39.2627 39.9737 40.0001 39.9737C40.7374 39.9737 41.3334 39.3763 41.3334 38.6404V37.9737C41.3334 37.2377 40.7373 36.6404 40.0001 36.6404Z" fill="#242B33"/>
<path d="M41.3333 23.9739C41.3333 23.7632 41.336 23.5553 41.3427 23.3459C41.3586 22.7765 41.0107 22.2873 40.5121 22.0833C40.4615 22.0606 40.4041 22.0606 40.3507 22.0447C40.2507 22.0179 40.156 21.9779 40.048 21.9753C40.0348 21.9739 40.0227 21.9739 40.008 21.9739C40.0054 21.9739 40.0027 21.9753 40.0001 21.9753C39.9974 21.9753 39.9948 21.9739 39.9921 21.9739C39.9774 21.9739 39.9654 21.9739 39.9521 21.9753C39.8441 21.9779 39.748 22.0179 39.6494 22.0447C39.5962 22.0606 39.5374 22.0606 39.488 22.0833C38.9894 22.2873 38.6413 22.7765 38.6574 23.3459C38.6641 23.5553 38.6668 23.7632 38.6668 23.9739V24.6406C38.6668 25.3765 39.2627 25.9739 40.0001 25.9739C40.7374 25.9739 41.3333 25.3765 41.3333 24.6406V23.9739Z" fill="#242B33"/>
<path d="M33.3334 33.8672C34.0707 33.8672 34.6666 33.2698 34.6666 32.5339V31.1792C34.6666 30.4433 34.0707 29.8459 33.3334 29.8459C32.596 29.8459 32.0001 30.4433 32.0001 31.1792V32.5339C32.0001 33.2698 32.596 33.8672 33.3334 33.8672Z" fill="#242B33"/>
<path d="M1.39343 25.9752C1.3775 25.9738 1.3614 25.9738 1.34547 25.9738C0.632186 25.9738 0.0387496 26.5405 0.0148434 27.2605C0.00546842 27.4978 0.000155926 27.7352 0.000155926 27.9738C0.000155926 28.7097 0.596092 29.307 1.33344 29.307C2.07078 29.307 2.66671 28.7097 2.66671 27.9738C2.66671 27.7658 2.67203 27.5605 2.67875 27.3538C2.70406 26.6178 2.12937 26.0005 1.39343 25.9752Z" fill="#242B33"/>
<path d="M7.15343 17.4139C7.45202 17.1259 7.7628 16.8512 8.0828 16.5898C8.65342 16.1231 8.73874 15.2831 8.27217 14.7139C7.80686 14.1445 6.96686 14.0565 6.39624 14.5245C6.0189 14.8339 5.65218 15.1578 5.30296 15.4965C4.77234 16.0072 4.75765 16.8512 5.26827 17.3819C5.52968 17.6525 5.8789 17.7886 6.22827 17.7886C6.5614 17.7884 6.89608 17.6645 7.15343 17.4139Z" fill="#242B33"/>
<path d="M3.62812 19.6031C2.97077 19.2751 2.16671 19.539 1.83875 20.1978C1.62015 20.6325 1.41734 21.0792 1.23609 21.5337C0.96281 22.219 1.29609 22.9937 1.97875 23.267C2.1414 23.3323 2.30812 23.3629 2.47343 23.3629C3.00281 23.3629 3.50406 23.0456 3.71202 22.5243C3.8653 22.139 4.03609 21.7617 4.2214 21.3923C4.55202 20.7339 4.28671 19.9339 3.62812 19.6031Z" fill="#242B33"/>
<path d="M6.02936 5.56315C6.25467 5.56315 6.48405 5.5058 6.69342 5.3858C7.05483 5.17783 7.42139 4.98174 7.79608 4.79908C8.45608 4.47377 8.72811 3.67377 8.40405 3.01378C8.07873 2.35237 7.27733 2.08175 6.61874 2.40581C6.19202 2.61518 5.77342 2.83784 5.3628 3.07378C4.72546 3.44174 4.50546 4.25643 4.87343 4.89518C5.12014 5.32315 5.56936 5.56315 6.02936 5.56315Z" fill="#242B33"/>
<path d="M78.0212 23.2671C78.7039 22.9939 79.0372 22.2192 78.7639 21.5339C78.5825 21.0792 78.3798 20.6325 78.1612 20.1979C77.8319 19.5393 77.0306 19.2765 76.3719 19.6032C75.7133 19.9339 75.4478 20.7339 75.7786 21.3926C75.9639 21.762 76.1345 22.1393 76.288 22.5246C76.4959 23.046 76.9973 23.3632 77.5253 23.3632C77.6919 23.3631 77.8586 23.3324 78.0212 23.2671Z" fill="#242B33"/>
<path d="M79.9853 27.2604C79.9612 26.523 79.308 25.9324 78.6067 25.9751C77.8708 26.0004 77.2961 26.6177 77.3214 27.3537C77.3281 27.5604 77.3334 27.7657 77.3334 27.9737C77.3334 28.7096 77.9294 29.307 78.6667 29.307C79.4041 29.307 80 28.7096 80 27.9737C80 27.7351 79.9945 27.4977 79.9853 27.2604Z" fill="#242B33"/>
<path d="M74.6359 3.07389C74.2266 2.83795 73.808 2.6153 73.3813 2.40592C72.7253 2.08327 71.9213 2.35389 71.5959 3.01389C71.2719 3.67389 71.5439 4.47389 72.2039 4.7992C72.5786 4.98185 72.9453 5.17795 73.3053 5.38592C73.5159 5.50592 73.7453 5.56326 73.9694 5.56326C74.4308 5.56326 74.88 5.32326 75.1267 4.89529C75.4945 4.25654 75.2745 3.44186 74.6359 3.07389Z" fill="#242B33"/>
<path d="M73.6039 14.5245C73.0319 14.0565 72.1919 14.1445 71.728 14.7139C71.2613 15.2833 71.3466 16.1233 71.9159 16.5898C72.2374 16.8512 72.548 17.1258 72.8466 17.4139C73.1039 17.6645 73.4386 17.7886 73.7719 17.7886C74.1212 17.7886 74.4692 17.6526 74.7319 17.3819C75.2425 16.8512 75.2278 16.0072 74.6972 15.4965C74.348 15.1578 73.9813 14.8339 73.6039 14.5245Z" fill="#242B33"/>
<path d="M24.9067 4.02453C25.2987 4.17249 25.6853 4.3339 26.0667 4.50452C26.244 4.58452 26.4281 4.62187 26.6107 4.62187C27.1201 4.62187 27.6067 4.32859 27.8281 3.8339C28.1307 3.16187 27.8295 2.3725 27.1574 2.07125C26.7295 1.87922 26.2934 1.69797 25.8521 1.52984C25.1681 1.27391 24.3948 1.61516 24.1335 2.30453C23.8707 2.9925 24.2173 3.76187 24.9067 4.02453Z" fill="#242B33"/>
<path d="M24.3907 15.1125C24.7521 15.3125 25.1067 15.5272 25.4493 15.7551C25.6773 15.9084 25.9334 15.9804 26.1893 15.9804C26.6187 15.9804 27.0413 15.7737 27.2987 15.3898C27.7081 14.7778 27.5427 13.9486 26.9307 13.5392C26.5254 13.2686 26.1067 13.0139 25.6774 12.7778C25.0307 12.4245 24.2215 12.6565 23.8654 13.3019C23.5107 13.9458 23.7467 14.7578 24.3907 15.1125Z" fill="#242B33"/>
<path d="M1.33343 9.30715C1.69484 9.30715 2.05609 9.16043 2.31874 8.87247C2.45609 8.72184 2.59749 8.57247 2.7414 8.42716C3.25468 7.90044 3.24671 7.05653 2.71999 6.54185C2.19593 6.02716 1.35328 6.03654 0.834685 6.5606C0.670623 6.72857 0.507967 6.9006 0.347968 7.07528C-0.147969 7.61935 -0.109375 8.46325 0.434686 8.95934C0.690779 9.19247 1.01203 9.30715 1.33343 9.30715Z" fill="#242B33"/>
<path d="M34.5045 37.3774C34.8298 37.636 35.1351 37.9188 35.4125 38.2174C35.6765 38.5015 36.0325 38.6441 36.3911 38.6441C36.7151 38.6441 37.0405 38.5268 37.299 38.2882C37.8378 37.7882 37.8684 36.9441 37.3684 36.4041C36.999 36.0068 36.5937 35.6308 36.1631 35.2894C35.5831 34.8309 34.7458 34.928 34.2898 35.5041C33.8312 36.0801 33.9272 36.9188 34.5045 37.3774Z" fill="#242B33"/>
<path d="M29.7534 20.1684C30.0067 20.5711 30.4401 20.7911 30.8827 20.7911C31.1268 20.7911 31.3707 20.7243 31.5921 20.587C32.2148 20.1937 32.4027 19.3696 32.0095 18.747C31.7481 18.3337 31.4707 17.9311 31.1788 17.5417C30.7348 16.9564 29.9003 16.835 29.3109 17.279C28.7229 17.7231 28.6056 18.559 29.0482 19.147C29.2973 19.4765 29.532 19.8178 29.7534 20.1684Z" fill="#242B33"/>
<path d="M30.3693 7.08582C30.6999 7.34051 31.024 7.60723 31.3399 7.88176C31.592 8.10176 31.904 8.20848 32.2146 8.20848C32.5867 8.20848 32.9573 8.05379 33.2199 7.75113C33.704 7.1952 33.6453 6.35254 33.0893 5.86973C32.7346 5.55911 32.3693 5.26036 31.9946 4.97239C31.412 4.52176 30.576 4.63239 30.1253 5.21645C29.6773 5.80051 29.7854 6.6366 30.3693 7.08582Z" fill="#242B33"/>
<path d="M12.2414 3.18582C12.3361 3.18582 12.4308 3.17645 12.5267 3.1552C12.9361 3.06582 13.3493 2.98723 13.764 2.92051C14.492 2.80582 14.9867 2.12192 14.8708 1.3952C14.7561 0.668483 14.0748 0.167234 13.3454 0.288483C12.8775 0.363171 12.4148 0.449889 11.9575 0.551139C11.2375 0.708483 10.7828 1.41911 10.9401 2.1391C11.0773 2.76192 11.6281 3.18582 12.2414 3.18582Z" fill="#242B33"/>
<path d="M18.7934 2.68987C19.2148 2.71925 19.632 2.75925 20.044 2.81128C20.1 2.818 20.1573 2.8219 20.212 2.8219C20.8746 2.8219 21.4493 2.32862 21.5332 1.65519C21.6265 0.924562 21.1079 0.257844 20.3773 0.165813C19.9132 0.107219 19.444 0.0605007 18.9706 0.0298758C18.252 -0.0234054 17.5986 0.536593 17.5506 1.27128C17.5028 2.00581 18.0573 2.6405 18.7934 2.68987Z" fill="#242B33"/>
<path d="M32.6454 23.1392C31.9268 23.3018 31.476 24.0151 31.6387 24.7338C31.7307 25.1338 31.8027 25.5391 31.8587 25.9498C31.9507 26.6191 32.5227 27.1044 33.1801 27.1044C33.2401 27.1044 33.3001 27.1004 33.3601 27.0912C34.0895 26.9926 34.6015 26.3205 34.5027 25.5912C34.436 25.1032 34.3481 24.6205 34.2413 24.1445C34.0787 23.4271 33.3601 22.9777 32.6454 23.1392Z" fill="#242B33"/>
<path d="M11.9334 14.2419C12.0828 14.2419 12.2348 14.2165 12.384 14.1633C12.7708 14.0233 13.1654 13.9006 13.5667 13.7953C14.2787 13.6059 14.7026 12.8767 14.5147 12.1647C14.3253 11.4526 13.5947 11.0326 12.884 11.2167C12.4108 11.342 11.9426 11.4887 11.4826 11.6526C10.7906 11.9006 10.4294 12.6647 10.6786 13.3579C10.8734 13.9019 11.3867 14.2419 11.9334 14.2419Z" fill="#242B33"/>
<path d="M18.492 13.3525C18.9067 13.3845 19.3161 13.4339 19.7226 13.5004C19.7959 13.5125 19.8679 13.5178 19.94 13.5178C20.5814 13.5178 21.1467 13.0551 21.2532 12.4018C21.3732 11.6751 20.8812 10.9886 20.1546 10.8686C19.6761 10.79 19.1906 10.7312 18.6973 10.6939C17.972 10.6298 17.3226 11.1845 17.2653 11.9192C17.2081 12.6539 17.7573 13.2951 18.492 13.3525Z" fill="#242B33"/>
<path d="M40.3333 44C39.5959 44 39 44.5973 39 45.3333V46C39 46.7359 39.5959 47.3333 40.3333 47.3333C41.0706 47.3333 41.6666 46.7359 41.6666 46V45.3333C41.6666 44.5973 41.0705 44 40.3333 44Z" fill="#242B33"/>
<path d="M40.3333 50C39.5959 50 39 50.5973 39 51.3333V52C39 52.7359 39.5959 53.3333 40.3333 53.3333C41.0706 53.3333 41.6666 52.7359 41.6666 52V51.3333C41.6666 50.5973 41.0705 50 40.3333 50Z" fill="#242B33"/>
<path d="M40.3333 57C39.5959 57 39 57.5973 39 58.3333V59C39 59.7359 39.5959 60.3333 40.3333 60.3333C41.0706 60.3333 41.6666 59.7359 41.6666 59V58.3333C41.6666 57.5973 41.0705 57 40.3333 57Z" fill="#242B33"/>
<path d="M40.3333 62C39.5959 62 39 62.5973 39 63.3333V64C39 64.7359 39.5959 65.3333 40.3333 65.3333C41.0706 65.3333 41.6666 64.7359 41.6666 64V63.3333C41.6666 62.5973 41.0705 62 40.3333 62Z" fill="#242B33"/>
</g>
<defs>
<clipPath id="clip0_13_93">
<rect width="80" height="80" fill="white"/>
</clipPath>
</defs>
</svg>
