<svg width="80" height="80" viewBox="0 0 80 80" fill="none" xmlns="http://www.w3.org/2000/svg">
<g clip-path="url(#clip0_13_153)">
<path d="M25.3111 33.5933C15.7655 37.229 10.9938 48.047 14.6726 57.7058C16.5148 62.5425 20.1359 66.3205 24.8694 68.3442C25.6548 68.6804 26.5626 68.3095 26.8908 67.519C27.218 66.7258 26.8444 65.8098 26.0569 65.4729C22.1122 63.7856 19.0934 60.6392 17.5576 56.6069C14.4916 48.5568 18.4687 39.5429 26.423 36.5133C34.3773 33.4837 43.3433 37.5682 46.4093 45.6181C49.4759 53.6695 45.4982 62.6821 37.5439 65.7117C36.7462 66.0155 36.3505 66.9152 36.6574 67.721C36.9649 68.5283 37.8582 68.9353 38.656 68.6314C48.2016 64.9958 52.9738 54.1793 49.2945 44.519C45.6159 34.8603 34.8567 29.9576 25.3111 33.5933Z" fill="#242B33"/>
<path d="M24.6102 76.3609C25.088 75.1448 24.4532 73.756 23.1879 73.2589C10.5715 68.3021 4.1897 54.3879 8.96358 42.2371C13.7366 30.0884 27.8841 24.2375 40.5003 29.1942C53.1164 34.1508 59.4975 48.0674 54.7245 60.2159C52.1303 66.8189 46.6589 71.8239 39.7066 73.95C38.4302 74.3412 37.7455 75.6745 38.1822 76.9295C38.6173 78.1814 40.0022 78.8856 41.2861 78.4947C49.621 75.9425 56.1872 69.9386 59.3008 62.0136C65.0277 47.4371 57.3717 30.7356 42.2316 24.7873C27.0916 18.839 10.1144 25.8624 4.38749 40.4389C-1.34033 55.0178 6.31663 71.7169 21.4567 77.6652C22.722 78.1623 24.1316 77.5793 24.6102 76.3609Z" fill="#242B33"/>
<path d="M68.0001 79.0001L71 77.5C70.75 79.5 38.5001 87.0001 64.5 59.5001C70 18.0001 72.5 37.0002 72.5 38.5001C72.5 39.0002 81 20.0001 74 56.5001C74 66.1596 68.1383 79.0001 68.0001 79.0001Z" fill="#242B33"/>
<path d="M69.6877 77H9.31234C6.92749 77 5 77.672 5 78.5C5 79.328 6.92749 80 9.31234 80H69.6877C72.0725 80 74 79.328 74 78.5C74 77.672 72.0725 77 69.6877 77Z" fill="#242B33"/>
</g>
<defs>
<clipPath id="clip0_13_153">
<rect width="80" height="80" fill="white"/>
</clipPath>
</defs>
</svg>
