<svg width="120" height="66" viewBox="0 0 120 66" fill="none" xmlns="http://www.w3.org/2000/svg">
<path d="M1.08984 37L5.76562 16.2227H6.32812L7.52344 21.6719L4.11328 37H1.08984ZM6.71484 33.0625L7.38281 30.0742H11.1445L7.24219 12.4258H10.3008L15.8555 37H12.7969L11.918 33.0625H6.71484ZM24.0117 37C21.8086 37 20.1211 36.1211 18.9492 34.3633C18.3867 33.4727 18.1055 32.6289 18.1055 31.832V23.1484C18.1055 21.9766 18.5977 20.8633 19.582 19.8086C20.7305 18.5898 22.207 17.9805 24.0117 17.9805H26.5781V20.8281H24.0117C22.6289 20.8281 21.6914 21.3789 21.1992 22.4805C21.082 22.7617 21.0234 23.0195 21.0234 23.2539V31.7266C21.0234 32.5469 21.4219 33.2031 22.2188 33.6953C22.7344 34 23.3203 34.1523 23.9766 34.1523H26.4727V37H24.0117ZM28.2656 43.6797V17.9805H31.3242V43.6797H28.2656ZM34.1016 31.9375V18.0156H37.0898V31.5859C37.0898 32.4297 37.5117 33.1328 38.3555 33.6953C38.918 34.0469 39.5391 34.2227 40.2188 34.2227V37.1758C37.9688 37.1758 36.2344 36.2969 35.0156 34.5391C34.4062 33.6484 34.1016 32.7812 34.1016 31.9375ZM41.7656 37.1758V34.2227C43.0312 34.2227 43.957 33.7188 44.543 32.7109C44.7539 32.3359 44.8594 31.9609 44.8594 31.5859V18.0156H47.8477V31.9375C47.8477 33.0391 47.3438 34.1289 46.3359 35.207C45.1172 36.4961 43.5938 37.1523 41.7656 37.1758ZM50.3438 32.5703V30.8828C50.3438 29.3594 50.9414 28.2461 52.1367 27.543C52.5117 27.3555 53.9531 26.9102 56.4609 26.207C59.25 25.4336 60.6445 24.7539 60.6445 24.168V23.5C60.6445 22.9375 60.5039 22.4219 60.2227 21.9531C59.6836 21.0625 58.8633 20.6172 57.7617 20.6172V17.9102C59.3789 17.9102 60.7266 18.4258 61.8047 19.457C62.9531 20.582 63.5273 21.8945 63.5273 23.3945V33.0273C63.5508 33.7539 63.8672 34.1406 64.4766 34.1875V36.9648C63.3047 36.9648 62.3555 36.5547 61.6289 35.7344C60.6914 36.5312 59.4023 36.9414 57.7617 36.9648V34.2227C57.9727 34.2227 58.1953 34.2109 58.4297 34.1875C59.9062 33.9531 60.6445 33.0742 60.6445 31.5508V27.5078C60.0352 27.8359 58.8633 28.2109 57.1289 28.6328C54.9023 29.1719 53.6484 29.5703 53.3672 29.8281C53.1094 30.0625 52.9688 30.4375 52.9453 30.9531V31.9023C52.9688 33.4023 54 34.1758 56.0391 34.2227V36.9648C54.5859 36.9648 53.3203 36.5898 52.2422 35.8398C50.9766 34.9492 50.3438 33.8594 50.3438 32.5703ZM50.5898 22.6914C50.5898 21.5664 51.0352 20.5586 51.9258 19.668C53.0742 18.4961 54.457 17.9102 56.0742 17.9102V20.6523C55.6289 20.6523 55.207 20.7461 54.8086 20.9336C53.7305 21.4492 53.1914 22.3633 53.1914 23.6758L50.5898 22.6914ZM67.0781 36.9648V12.3906H79.875V15.4141H70.1367V23.2188H76.5703V26.2773H70.1367V36.9648H67.0781ZM82.6523 15.3789C82.6523 14.6523 82.9922 14.1367 83.6719 13.832C83.9062 13.7383 84.1406 13.6914 84.375 13.6914C85.0781 13.6914 85.5938 14.0195 85.9219 14.6758C86.0156 14.9102 86.0625 15.1445 86.0625 15.3789C86.0625 16.082 85.7344 16.5977 85.0781 16.9258C84.8438 17.0195 84.6094 17.0664 84.375 17.0664C83.6484 17.0664 83.1211 16.7383 82.793 16.082C82.6992 15.8477 82.6523 15.6133 82.6523 15.3789ZM82.8984 37V18.4727H85.8516V37H82.8984ZM88.3828 32.0078L91.1602 31.4805C91.1602 32.5352 91.7109 33.3672 92.8125 33.9766C93.3516 34.2344 93.8672 34.375 94.3594 34.3984V37.1758C92.0859 37.1758 90.3867 36.3555 89.2617 34.7148C88.6758 33.8477 88.3828 32.9453 88.3828 32.0078ZM88.5586 23.3594C88.5586 21.2266 89.5312 19.6445 91.4766 18.6133C92.4141 18.1211 93.3516 17.875 94.2891 17.875V20.6172C93.2109 20.6172 92.3789 21.0625 91.793 21.9531C91.4883 22.3984 91.3359 22.8672 91.3359 23.3594C91.3359 24.1094 91.9219 24.7188 93.0938 25.1875C93.9844 25.5625 95.707 26.0547 98.2617 26.6641C99.8555 26.9922 100.992 27.7773 101.672 29.0195C102.023 29.6758 102.199 30.4141 102.199 31.2344C102.199 33.4844 101.297 35.1484 99.4922 36.2266C98.4375 36.8594 97.2305 37.1758 95.8711 37.1758V34.3984C96.9492 34.3984 97.8516 34.0234 98.5781 33.2734C99.0938 32.7344 99.3516 32.1016 99.3516 31.375C99.3516 30.4375 98.4258 29.6875 96.5742 29.125C96.1055 28.9844 95.3555 28.7852 94.3242 28.5273C93.2227 28.2695 92.4258 28.0586 91.9336 27.8945C90.1523 27.1914 89.0742 26.125 88.6992 24.6953C88.6055 24.2734 88.5586 23.8281 88.5586 23.3594ZM95.8359 20.6523V17.875C97.8516 17.875 99.4805 18.625 100.723 20.125C101.496 21.0859 101.883 22.0938 101.883 23.1484L99.1055 23.6055C99.1055 22.3164 98.4023 21.4141 96.9961 20.8984C96.5742 20.7344 96.1875 20.6523 95.8359 20.6523ZM104.344 37.1055V12.1797H107.121V19.5273C107.988 18.7539 109.055 18.3555 110.32 18.332V21.0742C109.266 21.0742 108.375 21.543 107.648 22.4805C107.32 22.9258 107.156 23.3359 107.156 23.7109V37.1055H104.344ZM111.973 21.0742V18.332C114.152 18.332 115.793 19.1172 116.895 20.6875C117.48 21.5312 117.773 22.4336 117.773 23.3945V37.1055H114.961V23.7109C114.961 22.8203 114.562 22.1055 113.766 21.5664C113.25 21.2383 112.652 21.0742 111.973 21.0742Z" fill="white"/>
<path d="M25.616 63V56.064L22.532 61.452H22.004L18.908 56.064V63H18.068V54.48H18.932L22.256 60.312L25.604 54.48H26.456V63H25.616ZM29.3008 61.2C29.3008 60.808 29.4128 60.472 29.6368 60.192C29.8608 59.904 30.1688 59.684 30.5608 59.532C30.9608 59.372 31.4208 59.292 31.9408 59.292C32.2448 59.292 32.5608 59.316 32.8888 59.364C33.2168 59.412 33.5088 59.484 33.7648 59.58V59.052C33.7648 58.524 33.6088 58.104 33.2968 57.792C32.9848 57.48 32.5528 57.324 32.0008 57.324C31.6648 57.324 31.3328 57.388 31.0048 57.516C30.6848 57.636 30.3488 57.816 29.9968 58.056L29.6848 57.48C30.0928 57.2 30.4928 56.992 30.8848 56.856C31.2768 56.712 31.6768 56.64 32.0848 56.64C32.8528 56.64 33.4608 56.86 33.9088 57.3C34.3568 57.74 34.5808 58.348 34.5808 59.124V62.016C34.5808 62.128 34.6048 62.212 34.6528 62.268C34.7008 62.316 34.7768 62.344 34.8808 62.352V63C34.7928 63.008 34.7168 63.016 34.6528 63.024C34.5888 63.032 34.5408 63.032 34.5088 63.024C34.3088 63.016 34.1568 62.952 34.0528 62.832C33.9488 62.712 33.8928 62.584 33.8848 62.448L33.8728 61.992C33.5928 62.352 33.2288 62.632 32.7808 62.832C32.3328 63.024 31.8768 63.12 31.4128 63.12C31.0128 63.12 30.6488 63.036 30.3208 62.868C30.0008 62.692 29.7488 62.46 29.5648 62.172C29.3888 61.876 29.3008 61.552 29.3008 61.2ZM33.4888 61.68C33.5768 61.568 33.6448 61.46 33.6928 61.356C33.7408 61.252 33.7648 61.16 33.7648 61.08V60.168C33.4928 60.064 33.2088 59.984 32.9128 59.928C32.6248 59.872 32.3328 59.844 32.0368 59.844C31.4528 59.844 30.9808 59.96 30.6208 60.192C30.2608 60.424 30.0808 60.74 30.0808 61.14C30.0808 61.372 30.1408 61.592 30.2608 61.8C30.3808 62 30.5568 62.168 30.7888 62.304C31.0208 62.432 31.2928 62.496 31.6048 62.496C31.9968 62.496 32.3608 62.42 32.6968 62.268C33.0408 62.116 33.3048 61.92 33.4888 61.68ZM37.7719 63V56.748H41.5039V57.48H38.5879V63H37.7719ZM43.5832 61.2C43.5832 60.808 43.6952 60.472 43.9192 60.192C44.1432 59.904 44.4512 59.684 44.8432 59.532C45.2432 59.372 45.7032 59.292 46.2232 59.292C46.5272 59.292 46.8432 59.316 47.1712 59.364C47.4992 59.412 47.7912 59.484 48.0472 59.58V59.052C48.0472 58.524 47.8912 58.104 47.5792 57.792C47.2672 57.48 46.8352 57.324 46.2832 57.324C45.9472 57.324 45.6152 57.388 45.2872 57.516C44.9672 57.636 44.6312 57.816 44.2792 58.056L43.9672 57.48C44.3752 57.2 44.7752 56.992 45.1672 56.856C45.5592 56.712 45.9592 56.64 46.3672 56.64C47.1352 56.64 47.7432 56.86 48.1912 57.3C48.6392 57.74 48.8632 58.348 48.8632 59.124V62.016C48.8632 62.128 48.8872 62.212 48.9352 62.268C48.9832 62.316 49.0592 62.344 49.1632 62.352V63C49.0752 63.008 48.9992 63.016 48.9352 63.024C48.8712 63.032 48.8232 63.032 48.7912 63.024C48.5912 63.016 48.4392 62.952 48.3352 62.832C48.2312 62.712 48.1752 62.584 48.1672 62.448L48.1552 61.992C47.8752 62.352 47.5112 62.632 47.0632 62.832C46.6152 63.024 46.1592 63.12 45.6952 63.12C45.2952 63.12 44.9312 63.036 44.6032 62.868C44.2832 62.692 44.0312 62.46 43.8472 62.172C43.6712 61.876 43.5832 61.552 43.5832 61.2ZM47.7712 61.68C47.8592 61.568 47.9272 61.46 47.9752 61.356C48.0232 61.252 48.0472 61.16 48.0472 61.08V60.168C47.7752 60.064 47.4912 59.984 47.1952 59.928C46.9072 59.872 46.6152 59.844 46.3192 59.844C45.7352 59.844 45.2632 59.96 44.9032 60.192C44.5432 60.424 44.3632 60.74 44.3632 61.14C44.3632 61.372 44.4232 61.592 44.5432 61.8C44.6632 62 44.8392 62.168 45.0712 62.304C45.3032 62.432 45.5752 62.496 45.8872 62.496C46.2792 62.496 46.6432 62.42 46.9792 62.268C47.3232 62.116 47.5872 61.92 47.7712 61.68ZM53.8783 63.072C53.3023 63.072 52.8103 62.964 52.4023 62.748C51.9943 62.524 51.6823 62.212 51.4663 61.812L52.1383 61.512C52.2903 61.792 52.5103 62.012 52.7983 62.172C53.0863 62.324 53.4343 62.4 53.8423 62.4C54.3303 62.4 54.7183 62.288 55.0063 62.064C55.3023 61.84 55.4503 61.54 55.4503 61.164C55.4503 60.82 55.3343 60.544 55.1023 60.336C54.8703 60.128 54.5503 60.02 54.1423 60.012H53.5063V59.448H54.1903C54.3663 59.448 54.5263 59.4 54.6703 59.304C54.8143 59.208 54.9263 59.08 55.0063 58.92C55.0863 58.76 55.1263 58.58 55.1263 58.38C55.1263 58.068 55.0143 57.816 54.7903 57.624C54.5743 57.432 54.2543 57.336 53.8303 57.336C53.4783 57.336 53.1823 57.408 52.9423 57.552C52.7103 57.688 52.5223 57.892 52.3783 58.164L51.7543 57.828C51.9383 57.46 52.2103 57.172 52.5703 56.964C52.9383 56.756 53.3663 56.652 53.8543 56.652C54.2543 56.652 54.6023 56.72 54.8983 56.856C55.2023 56.984 55.4383 57.172 55.6063 57.42C55.7823 57.66 55.8703 57.952 55.8703 58.296C55.8703 58.592 55.7983 58.868 55.6543 59.124C55.5103 59.372 55.3103 59.56 55.0543 59.688C55.4223 59.8 55.7063 59.996 55.9063 60.276C56.1143 60.556 56.2183 60.884 56.2183 61.26C56.2183 61.636 56.1183 61.96 55.9183 62.232C55.7183 62.504 55.4423 62.712 55.0903 62.856C54.7383 63 54.3343 63.072 53.8783 63.072ZM59.0138 63V56.76H59.8298V61.896L63.6338 56.748H64.3658V63H63.5498V57.948L59.8058 63H59.0138ZM67.5788 63V56.748H68.3948V59.436H71.9708V56.748H72.7868V63H71.9708V60.168H68.3948V63H67.5788ZM83.7175 63.12C83.1975 63.12 82.7295 62.984 82.3135 62.712C81.9055 62.44 81.5815 62.104 81.3415 61.704V65.556H80.5255V56.748H81.2575V57.96C81.5055 57.568 81.8375 57.252 82.2535 57.012C82.6695 56.764 83.1135 56.64 83.5855 56.64C84.0175 56.64 84.4135 56.732 84.7735 56.916C85.1335 57.092 85.4455 57.332 85.7095 57.636C85.9735 57.94 86.1775 58.288 86.3215 58.68C86.4735 59.064 86.5495 59.464 86.5495 59.88C86.5495 60.464 86.4295 61.004 86.1895 61.5C85.9575 61.988 85.6295 62.38 85.2055 62.676C84.7815 62.972 84.2855 63.12 83.7175 63.12ZM83.4895 62.4C83.8335 62.4 84.1415 62.332 84.4135 62.196C84.6855 62.052 84.9175 61.86 85.1095 61.62C85.3095 61.38 85.4615 61.112 85.5655 60.816C85.6695 60.512 85.7215 60.2 85.7215 59.88C85.7215 59.544 85.6615 59.224 85.5415 58.92C85.4295 58.616 85.2655 58.348 85.0495 58.116C84.8335 57.884 84.5855 57.7 84.3055 57.564C84.0255 57.428 83.7215 57.36 83.3935 57.36C83.1855 57.36 82.9695 57.4 82.7455 57.48C82.5215 57.56 82.3055 57.676 82.0975 57.828C81.8975 57.972 81.7295 58.136 81.5935 58.32C81.4575 58.504 81.3735 58.7 81.3415 58.908V60.828C81.4695 61.124 81.6415 61.392 81.8575 61.632C82.0735 61.864 82.3215 62.052 82.6015 62.196C82.8895 62.332 83.1855 62.4 83.4895 62.4ZM89.3597 63V56.748H90.1757V58.956H91.5917C92.3037 58.956 92.8397 59.14 93.1997 59.508C93.5677 59.868 93.7517 60.344 93.7517 60.936C93.7517 61.32 93.6717 61.668 93.5117 61.98C93.3517 62.292 93.1157 62.54 92.8037 62.724C92.4997 62.908 92.1157 63 91.6517 63H89.3597ZM90.1757 62.352H91.5437C91.8717 62.352 92.1357 62.288 92.3357 62.16C92.5357 62.024 92.6837 61.852 92.7797 61.644C92.8757 61.428 92.9237 61.196 92.9237 60.948C92.9237 60.708 92.8797 60.488 92.7917 60.288C92.7117 60.08 92.5677 59.916 92.3597 59.796C92.1597 59.668 91.8797 59.604 91.5197 59.604H90.1757V62.352ZM94.8917 63V56.76H95.7077V63H94.8917ZM101.813 63.12C100.805 63.12 100.041 62.812 99.5205 62.196C99.0085 61.572 98.7525 60.712 98.7525 59.616C98.7525 58.84 98.8165 58.184 98.9445 57.648C99.0725 57.112 99.2605 56.672 99.5085 56.328C99.7565 55.976 100.061 55.688 100.421 55.464C100.789 55.24 101.209 55.056 101.681 54.912L104.309 54.048L104.381 54.756L101.849 55.584C101.369 55.744 100.969 55.948 100.649 56.196C100.329 56.444 100.077 56.76 99.8925 57.144C99.7165 57.52 99.6005 58.012 99.5445 58.62C99.7525 58.156 100.073 57.8 100.505 57.552C100.937 57.296 101.437 57.168 102.005 57.168C102.613 57.168 103.129 57.292 103.553 57.54C103.985 57.788 104.313 58.132 104.537 58.572C104.761 59.012 104.873 59.52 104.873 60.096C104.873 60.704 104.753 61.236 104.513 61.692C104.281 62.14 103.937 62.492 103.481 62.748C103.033 62.996 102.477 63.12 101.813 63.12ZM101.813 62.4C102.525 62.4 103.073 62.196 103.457 61.788C103.849 61.372 104.045 60.82 104.045 60.132C104.045 59.46 103.853 58.912 103.469 58.488C103.093 58.064 102.541 57.852 101.813 57.852C101.397 57.852 101.021 57.94 100.685 58.116C100.349 58.292 100.081 58.548 99.8805 58.884C99.6885 59.22 99.5925 59.636 99.5925 60.132C99.5925 60.564 99.6765 60.952 99.8445 61.296C100.021 61.64 100.273 61.912 100.601 62.112C100.929 62.304 101.333 62.4 101.813 62.4Z" fill="white"/>
</svg>
